# This file uses centimeters as units for non-parametric coordinates.

g default
v -0.168043 -0.353425 -8.528190
v 0.168043 -0.182214 -8.506693
v -0.168043 -0.017338 -8.528190
v 0.168043 -0.000087 -8.506693
v -0.168043 -0.017338 -8.864277
v 0.168043 -0.000087 -8.774109
v -0.168043 -0.353425 -8.864277
v 0.168043 -0.182214 -8.774109
v -0.289494 -0.283996 -8.793852
v -0.289494 -0.283996 -8.457766
v -0.289494 -0.012255 -8.457766
v -0.289494 -0.012255 -8.793852
vt 0.001992 0.951726
vt 0.001992 0.718149
vt 0.161073 0.718149
vt 0.161073 0.951726
vt 0.399448 0.699089
vt 0.399448 0.405531
vt 0.636802 0.405531
vt 0.636802 0.699089
vt 0.632362 0.760602
vt 0.338805 0.760602
vt 0.379430 0.295457
vt 0.360653 0.001900
vt 0.594230 0.001900
vt 0.672988 0.295457
vt 0.611475 0.401539
vt 0.317917 0.401539
vt 0.642937 0.699089
vt 0.721695 0.405531
vt 0.955272 0.405531
vt 0.936495 0.699089
vt 0.998008 0.805171
vt 0.704450 0.805171
vt 0.001992 0.295457
vt 0.151537 0.001900
vt 0.310618 0.001900
vt 0.295550 0.295457
vt 0.299990 0.401539
vt 0.062635 0.401539
vt 0.039112 0.420600
vt 0.332669 0.405531
vt 0.332669 0.564612
vt 0.039112 0.714157
vn -0.063833 0.000000 0.997961
vn -0.063833 0.000000 0.997961
vn -0.063833 0.000000 0.997961
vn -0.063833 0.000000 0.997961
vn -0.051264 0.998685 0.000000
vn -0.051264 0.998685 0.000000
vn -0.051264 0.998685 0.000000
vn -0.051264 0.998685 0.000000
vn 0.259124 0.000000 -0.965844
vn 0.259124 0.000000 -0.965844
vn 0.259124 0.000000 -0.965844
vn 0.259124 0.000000 -0.965844
vn 0.453918 -0.891043 0.000000
vn 0.453918 -0.891043 0.000000
vn 0.453918 -0.891043 0.000000
vn 0.453918 -0.891043 0.000000
vn 1.000000 0.000000 0.000000
vn 1.000000 0.000000 0.000000
vn 1.000000 0.000000 0.000000
vn 1.000000 0.000000 0.000000
vn -1.000000 0.000000 0.000000
vn -1.000000 0.000000 0.000000
vn -1.000000 0.000000 0.000000
vn -1.000000 0.000000 0.000000
vn -0.496293 -0.868155 0.000000
vn -0.496293 -0.868155 0.000000
vn -0.496293 -0.868155 0.000000
vn -0.496293 -0.868155 0.000000
vn 0.501628 0.000000 0.865083
vn 0.501628 0.000000 0.865084
vn 0.501628 0.000000 0.865083
vn 0.501628 0.000000 0.865083
vn 0.041815 0.999125 0.000000
vn 0.041815 0.999125 0.000000
vn 0.041815 0.999125 0.000000
vn 0.041815 0.999125 0.000000
vn -0.501628 0.000000 -0.865084
vn -0.501628 0.000000 -0.865084
vn -0.501628 0.000000 -0.865083
vn -0.501628 0.000000 -0.865083
s off
g Prise_8
f 1/23/1 2/24/2 4/25/3 3/26/4
f 3/11/5 4/12/6 6/13/7 5/14/8
f 5/29/9 6/30/10 8/31/11 7/32/12
f 7/17/13 8/18/14 2/19/15 1/20/16
f 2/1/17 8/2/18 6/3/19 4/4/20
f 9/5/21 10/6/22 11/7/23 12/8/24
f 7/17/25 1/20/26 10/21/27 9/22/28
f 1/23/29 3/26/30 11/27/31 10/28/32
f 3/11/33 5/14/34 12/15/35 11/16/36
f 5/9/37 7/10/38 9/5/39 12/8/40
