# This file uses centimeters as units for non-parametric coordinates.

g default
v 0.778198 2.491658 -8.243419
v 1.778198 2.491658 -8.243419
v 0.978711 3.491658 -8.243419
v 1.577686 3.491658 -8.243419
v 0.978711 3.491658 -9.104809
v 1.577686 3.491658 -9.104809
v 2.455645 2.928400 -8.412609
v 2.322984 3.590020 -8.935618
v 2.322984 3.590020 -8.412609
v 0.253657 3.085423 -8.465101
v 0.466153 3.629375 -8.465101
v 0.466153 3.629375 -8.883125
v 0.831410 2.945175 -9.206635
v 0.778198 2.491658 -8.975506
v 1.778198 2.491658 -8.982353
v 1.725071 2.944758 -9.206693
v 2.530302 3.284652 -9.016495
v 2.455645 2.928400 -8.804539
v 0.251257 3.411717 -8.952437
v 0.253657 3.085423 -8.750209
v 2.532493 3.273722 -8.412609
v 0.230018 3.357349 -8.465101
vt 0.558909 0.327947
vt 0.352927 0.555888
vt 0.538277 0.554955
vt 0.239975 0.010109
vt 0.477475 0.000002
vt 0.998043 0.605013
vt 0.771984 0.767982
vt 0.771169 0.606139
vt 0.999998 0.396971
vt 0.018413 0.059212
vt 0.239005 0.181543
vt 0.904891 0.547610
vt 0.558865 0.554491
vt 0.507779 0.181543
vt 0.249415 0.556550
vt 0.000002 0.501477
vt 0.249459 0.327887
vt 0.886323 0.792438
vt 0.804064 0.396594
vt 0.037188 0.276381
vt 0.888571 0.605548
vt 0.888529 0.396610
vt 0.733727 0.291274
vt 0.509165 0.327558
vt 0.244295 0.327888
vt 0.804047 0.484820
vt 0.000002 0.181543
vt 0.781465 0.181544
vt 0.189690 0.754668
vt 0.354269 0.822441
vt 0.755126 0.046536
vt 0.539619 0.821508
vt 0.998635 0.726294
vt 0.000025 0.380195
vt 0.189039 0.625313
vt 0.999579 0.526328
vn 0.000000 1.000000 0.000000
vn 0.000000 1.000000 0.000000
vn 0.000000 1.000000 0.000000
vn 0.000000 1.000000 0.000000
vn 0.977178 -0.212374 -0.004481
vn 0.977178 -0.212374 -0.004481
vn 0.959969 0.280107 0.000632
vn 0.976003 0.217759 -0.000048
vn -0.130842 0.991403 0.000000
vn -0.130842 0.991403 0.000000
vn -0.130842 0.991403 0.000000
vn -0.130842 0.991403 0.000000
vn 0.259483 0.965748 0.000000
vn 0.259483 0.965748 0.000000
vn 0.259483 0.965748 0.000000
vn 0.259483 0.965748 0.000000
vn -0.878971 0.476832 0.006458
vn -0.930007 0.367535 -0.002042
vn -0.736980 0.675513 0.023276
vn -0.736980 0.675513 0.023276
vn -0.632015 -0.344568 -0.694140
vn -0.632015 -0.344568 -0.694140
vn -0.632015 -0.344568 -0.694140
vn -0.632015 -0.344568 -0.694140
vn -0.003357 -0.448914 -0.893569
vn -0.003357 -0.448914 -0.893569
vn -0.003357 -0.448914 -0.893569
vn -0.003357 -0.448914 -0.893569
vn 0.425950 -0.438068 -0.791621
vn 0.425950 -0.438068 -0.791621
vn 0.425950 -0.438068 -0.791621
vn 0.425950 -0.438068 -0.791621
vn 0.000013 0.183160 -0.983083
vn 0.000013 0.183160 -0.983083
vn 0.000013 0.183160 -0.983083
vn 0.000013 0.183160 -0.983083
vn 0.000000 -1.000000 0.000000
vn 0.000000 -1.000000 0.000000
vn 0.000000 -1.000000 0.000000
vn 0.000000 -1.000000 0.000000
vn 0.541846 -0.840478 0.000000
vn 0.541846 -0.840478 0.000000
vn 0.541846 -0.840478 0.000000
vn 0.541846 -0.840478 0.000000
vn 0.145973 0.265134 -0.953098
vn 0.145973 0.265134 -0.953098
vn 0.145973 0.265135 -0.953098
vn 0.145973 0.265134 -0.953098
vn -0.749443 -0.662069 0.000000
vn -0.749443 -0.662069 0.000000
vn -0.749443 -0.662069 0.000000
vn -0.749443 -0.662069 0.000000
vn -0.227582 0.314287 -0.921645
vn -0.227582 0.314287 -0.921645
vn -0.227582 0.314287 -0.921645
vn -0.227582 0.314287 -0.921645
vn 0.830799 0.556559 0.003782
vn 0.830799 0.556559 0.003782
vn -0.998052 -0.054007 -0.031244
vn -0.998052 -0.054007 -0.031244
s off
g Prise_6
f 3/2/1 4/3/2 6/32/3 5/30/4
s 1
f 7/6/5 18/33/6 17/18/7 21/21/8
s off
f 6/32/9 4/3/10 9/8/11 8/7/12
f 3/2/13 5/30/14 12/29/15 11/35/16
s 2
f 19/12/17 22/22/18 11/9/19 12/36/20
s off
f 13/11/21 14/25/22 20/20/23 19/27/24
f 14/25/25 13/11/26 16/14/27 15/24/28
f 15/24/29 16/14/30 17/28/31 18/23/32
f 5/4/33 6/5/34 16/14/35 13/11/36
f 14/13/37 15/15/38 2/17/39 1/1/40
f 2/17/41 15/15/42 18/16/43 7/34/44
f 16/14/45 6/5/46 8/31/47 17/28/48
f 14/13/49 1/1/50 10/19/51 20/26/52
f 5/4/53 13/11/54 19/27/55 12/10/56
s 1
f 21/21/8 17/18/7 8/7/57 9/8/58
s 2
f 19/12/17 20/26/59 10/19/60 22/22/18
