# This file uses centimeters as units for non-parametric coordinates.

g default
v 0.942997 -0.588618 -8.591965
v 0.942997 -1.588618 -8.591965
v 2.517531 -0.364976 -9.193434
v 2.848185 -0.637975 -8.952527
v 2.513624 -1.811486 -9.191871
v 2.848185 -1.535262 -8.948118
v 0.938824 -0.588511 -8.444177
v 0.938765 -1.588511 -8.445396
v 2.532495 -1.815596 -8.522570
v 2.854456 -1.545861 -8.537776
v 2.854552 -0.630895 -8.536662
v 2.533374 -0.361377 -8.520835
v 3.000926 -0.905385 -8.551985
v 2.993815 -0.907161 -9.016669
v 2.621552 -0.798929 -9.287890
v 0.856457 -0.888618 -8.613651
v 0.851756 -0.888511 -8.448264
vt 0.035113 0.620342
vt 0.034932 0.379879
vt 0.672502 0.288223
vt 0.582205 0.343521
vt 0.594614 0.000003
vt 0.255997 0.285421
vt 0.000002 0.379879
vt 0.000470 0.620341
vt 0.255820 0.443614
vt 0.355103 0.441889
vt 0.583859 0.441785
vt 0.028702 0.000002
vt 0.510334 0.438828
vt 0.711373 0.137444
vt 0.607827 0.104996
vt 0.039527 0.453682
vt 0.000437 0.453686
vt 0.166118 0.079903
vt 0.166140 0.249171
vt 0.509761 0.329030
vt 0.357399 0.344926
vt 0.562751 0.338997
vt 0.682489 0.284825
vt 0.191478 0.009353
vt 0.698232 0.062143
vt 0.029594 0.999998
vt 0.187527 0.990918
vt 0.187441 0.008251
vt 0.682967 0.443778
vn 0.670507 0.381579 -0.636253
vn 0.670507 0.381579 -0.636253
vn 0.670507 0.381579 -0.636253
vn 0.670507 0.381579 -0.636253
vn -0.364670 0.137056 -0.920995
vn -0.364670 0.137056 -0.920995
vn -0.364670 0.137056 -0.920995
vn -0.364670 0.137056 -0.920995
vn -0.959922 0.278926 -0.027389
vn -0.959922 0.278926 -0.027389
vn -0.959922 0.278926 -0.027389
vn -0.959922 0.278926 -0.027389
vn -0.141265 -0.989969 -0.002322
vn -0.141265 -0.989969 -0.002322
vn -0.141265 -0.989969 -0.002322
vn -0.141265 -0.989969 -0.002322
vn 0.644404 -0.764263 -0.025419
vn 0.644404 -0.764262 -0.025419
vn 0.644404 -0.764263 -0.025419
vn 0.644404 -0.764263 -0.025419
vn 0.879713 0.475155 -0.018245
vn 0.879713 0.475155 -0.018245
vn 0.879713 0.475155 -0.018245
vn 0.879713 0.475155 -0.018245
vn 0.643779 0.764933 -0.020641
vn 0.643779 0.764933 -0.020641
vn 0.643779 0.764933 -0.020641
vn 0.643779 0.764933 -0.020641
vn -0.141340 0.989958 -0.002460
vn -0.141340 0.989958 -0.002460
vn -0.141340 0.989958 -0.002460
vn -0.141340 0.989958 -0.002460
vn 0.974111 -0.225418 -0.017171
vn 0.974111 -0.225417 -0.017171
vn 0.974111 -0.225417 -0.017171
vn 0.974111 -0.225418 -0.017171
vn 0.606443 -0.171602 -0.776389
vn 0.606443 -0.171602 -0.776389
vn 0.606443 -0.171602 -0.776389
vn 0.606443 -0.171602 -0.776389
vn -0.358266 -0.059564 -0.931718
vn -0.358266 -0.059564 -0.931718
vn -0.358266 -0.059564 -0.931718
vn -0.358266 -0.059564 -0.931718
vn -0.991945 -0.123462 -0.028319
vn -0.991945 -0.123462 -0.028319
vn -0.991945 -0.123462 -0.028319
vn -0.991945 -0.123462 -0.028319
s off
g Prise_7
f 3/5/1 4/25/2 14/14/3 15/15/4
f 1/24/5 3/5/6 15/15/7 16/18/8
f 16/16/9 17/17/10 7/7/11 1/2/12
f 2/1/13 5/27/14 9/26/15 8/8/16
f 10/10/17 9/9/18 5/6/19 6/21/20
f 11/11/21 13/13/22 14/20/23 4/4/24
f 12/29/25 11/11/26 4/4/27 3/23/28
f 7/7/29 12/12/30 3/28/31 1/2/32
f 14/20/33 13/13/34 10/10/35 6/21/36
f 15/15/37 14/14/38 6/3/39 5/22/40
f 16/18/41 15/15/42 5/22/43 2/19/44
f 2/1/45 8/8/46 17/17/47 16/16/48
