# This file uses centimeters as units for non-parametric coordinates.

g default
v 5.102054 -4.750025 -8.483495
v 4.863746 -5.000000 -8.424251
v 4.795898 -4.750025 -8.660254
v -4.795895 -4.750025 -8.660255
v -4.863742 -5.000000 -8.424253
v -5.102050 -4.750025 -8.483497
v -10.000000 -4.755462 -0.000001
v -9.576447 -5.000000 -0.244540
v 9.576447 -5.000000 -0.244538
v 10.000000 -4.755462 0.000000
v 4.795898 4.750025 -8.660254
v 4.863746 5.000000 -8.424251
v 5.102054 4.750025 -8.483495
v -5.102050 4.750025 -8.483497
v -4.863742 5.000000 -8.424253
v -4.795895 4.750025 -8.660255
v -9.576447 5.000000 -0.244540
v -10.000000 4.755462 -0.000001
v 10.000000 4.755462 0.000000
v 9.576447 5.000000 -0.244538
vt 0.000002 0.672849
vt 0.328660 0.672849
vt 0.328660 0.988857
vt 0.596757 0.000026
vt 0.000027 0.169908
vt 0.270656 0.014014
vt 0.878803 0.169975
vt 0.608197 0.014040
vt 0.000002 0.491732
vt 0.270607 0.647667
vt 0.328660 0.672849
vt 0.656572 0.672849
vt 0.282047 0.661681
vt 0.656572 0.672849
vt 0.608149 0.647693
vt 0.656572 0.999998
vt 0.985229 0.988857
vt 0.328660 0.988857
vt 0.656572 0.988857
vt 0.656572 0.988857
vt 0.000002 0.988857
vt 0.282098 0.000002
vt 0.985229 0.672849
vt 0.596706 0.661705
vt 0.965515 0.999998
vt 0.878778 0.491799
vt 0.010599 0.999998
vt 0.328660 0.999998
vt 0.974633 0.661708
vt 0.656572 0.661708
vt 0.328660 0.661708
vt 0.019716 0.661708
vn 0.499999 0.000000 -0.866026
vn 0.499999 0.000000 -0.866026
vn 0.499999 0.000000 -0.866026
vn 0.499999 0.000000 -0.866026
vn 0.621092 -0.696965 -0.358448
vn 0.621092 -0.696965 -0.358448
vn 0.621092 -0.696965 -0.358448
vn 0.621092 -0.696965 -0.358448
vn 0.000000 -0.686494 -0.727135
vn 0.000000 -0.686494 -0.727135
vn 0.000000 -0.686494 -0.727135
vn 0.000000 -0.686494 -0.727135
vn -0.500001 0.000000 -0.866025
vn -0.500001 0.000000 -0.866025
vn -0.500001 0.000000 -0.866025
vn -0.500001 0.000000 -0.866025
vn -0.621093 -0.696964 -0.358448
vn -0.621093 -0.696964 -0.358448
vn -0.621093 -0.696964 -0.358448
vn -0.621093 -0.696964 -0.358448
vn -0.000000 -0.707107 0.707107
vn -0.000000 -0.707107 0.707107
vn -0.000000 -0.707107 0.707107
vn -0.000000 -0.707107 0.707107
vn 0.000000 0.686494 -0.727135
vn 0.000000 0.686494 -0.727135
vn 0.000000 0.686494 -0.727135
vn 0.000000 0.686494 -0.727135
vn 0.621092 0.696965 -0.358448
vn 0.621092 0.696965 -0.358448
vn 0.621092 0.696965 -0.358448
vn 0.621092 0.696965 -0.358448
vn -0.621093 0.696964 -0.358448
vn -0.621093 0.696964 -0.358448
vn -0.621093 0.696964 -0.358448
vn -0.621093 0.696964 -0.358448
vn -0.000000 0.707106 0.707107
vn -0.000000 0.707106 0.707107
vn -0.000000 0.707106 0.707107
vn -0.000000 0.707106 0.707107
vn 0.000000 0.000000 -1.000000
vn 0.000000 0.000000 -1.000000
vn 0.000000 0.000000 -1.000000
vn 0.000000 0.000000 -1.000000
vn -0.866025 0.000000 -0.500000
vn -0.866025 0.000000 -0.500000
vn -0.866025 0.000000 -0.500000
vn -0.866025 0.000000 -0.500000
vn 0.866026 0.000000 -0.500000
vn 0.866026 0.000000 -0.500000
vn 0.866026 0.000000 -0.500000
vn 0.866026 0.000000 -0.500000
vn 0.000000 -1.000000 -0.000000
vn 0.000000 -1.000000 -0.000000
vn 0.000000 -1.000000 -0.000000
vn 0.000000 -1.000000 -0.000000
vn 0.000000 1.000000 -0.000000
vn 0.000000 1.000000 -0.000000
vn 0.000000 1.000000 -0.000000
vn 0.000000 1.000000 -0.000000
vn -0.000000 0.000000 1.000000
vn -0.000000 0.000000 1.000000
vn -0.000000 0.000000 1.000000
vn -0.000000 0.000000 1.000000
vn 0.413095 -0.563390 -0.715503
vn 0.413095 -0.563390 -0.715503
vn 0.413094 -0.563390 -0.715503
vn -0.413095 -0.563390 -0.715503
vn -0.413095 -0.563390 -0.715503
vn -0.413095 -0.563390 -0.715503
vn 0.413094 0.563390 -0.715503
vn 0.413095 0.563390 -0.715503
vn 0.413095 0.563390 -0.715503
vn -0.413094 0.563390 -0.715503
vn -0.413095 0.563390 -0.715503
vn -0.413094 0.563390 -0.715503
s off
g Wall
f 1/2/1 3/11/2 11/18/3 13/3/4
f 2/31/5 1/2/6 10/1/7 9/32/8
f 3/11/9 2/31/10 5/30/11 4/12/12
f 4/12/13 6/14/14 14/20/15 16/19/16
f 6/14/17 5/30/18 8/29/19 7/23/20
f 7/13/21 8/10/22 9/6/23 10/22/24
f 12/28/25 11/18/26 16/19/27 15/16/28
f 13/3/29 12/28/30 20/27/31 19/21/32
f 15/16/33 14/20/34 18/17/35 17/25/36
f 17/15/37 18/24/38 19/4/39 20/8/40
f 3/11/41 4/12/42 16/19/43 11/18/44
f 6/14/45 7/23/46 18/17/47 14/20/48
f 10/1/49 1/2/50 13/3/51 19/21/52
f 5/9/53 2/5/54 9/6/55 8/10/56
f 17/15/57 20/8/58 12/7/59 15/26/60
f 18/24/61 7/13/62 10/22/63 19/4/64
f 1/2/65 2/31/66 3/11/67
f 4/12/68 5/30/69 6/14/70
f 11/18/71 12/28/72 13/3/73
f 14/20/74 15/16/75 16/19/76
