# This file uses centimeters as units for non-parametric coordinates.

g default
v 0.809017 1.102976 -0.587785
v 0.309017 1.102976 -0.951057
v -0.309017 1.102976 -0.951057
v -0.809017 1.102976 -0.587785
v -1.000000 1.102976 0.000000
v -0.809017 1.102976 0.587785
v -0.309017 1.102976 0.951057
v 0.309017 1.102976 0.951057
v 0.809017 1.102976 0.587785
v 1.000000 1.102976 0.000000
v 0.769421 1.411993 -0.559017
v 0.293893 1.411993 -0.904509
v -0.293893 1.411993 -0.904509
v -0.769421 1.411993 -0.559017
v -0.951057 1.411993 0.000000
v -0.769421 1.411993 0.559017
v -0.293893 1.411993 0.904509
v 0.293893 1.411993 0.904509
v 0.769421 1.411993 0.559017
v 0.951057 1.411993 0.000000
v 0.654509 1.690761 -0.475528
v 0.250000 1.690761 -0.769421
v -0.250000 1.690761 -0.769421
v -0.654509 1.690761 -0.475528
v -0.809017 1.690761 0.000000
v -0.654509 1.690761 0.475528
v -0.250000 1.690761 0.769421
v 0.250000 1.690761 0.769421
v 0.654509 1.690761 0.475528
v 0.809017 1.690761 0.000000
v 0.475528 1.911993 -0.345492
v 0.181636 1.911993 -0.559017
v -0.181636 1.911993 -0.559017
v -0.475528 1.911993 -0.345491
v -0.587785 1.911993 0.000000
v -0.475528 1.911993 0.345492
v -0.181636 1.911993 0.559017
v 0.181636 1.911993 0.559017
v 0.475528 1.911993 0.345491
v 0.587785 1.911993 0.000000
v 0.250000 2.054033 -0.181636
v 0.095491 2.054033 -0.293893
v -0.095492 2.054033 -0.293893
v -0.250000 2.054033 -0.181636
v -0.309017 2.054033 0.000000
v -0.250000 2.054033 0.181636
v -0.095491 2.054033 0.293893
v 0.095492 2.054033 0.293893
v 0.250000 2.054033 0.181636
v 0.309017 2.054033 0.000000
v 0.000000 2.102976 0.000000
vt 0.904509 0.809017
vt 0.654508 1.000000
vt 0.646946 0.975528
vt 0.884711 0.793893
vt 0.345491 1.000000
vt 0.353054 0.975528
vt 0.095491 0.809017
vt 0.115289 0.793893
vt -0.000000 0.500000
vt 0.024472 0.500000
vt 0.095491 0.190983
vt 0.115290 0.206107
vt 0.345492 0.000000
vt 0.353054 0.024472
vt 0.654508 0.000000
vt 0.646946 0.024472
vt 0.904508 0.190983
vt 0.884710 0.206107
vt 1.000000 0.500000
vt 0.975528 0.500000
vt 0.625000 0.904508
vt 0.827254 0.750000
vt 0.375000 0.904508
vt 0.172746 0.750000
vt 0.095491 0.500000
vt 0.172746 0.250000
vt 0.375000 0.095492
vt 0.625000 0.095492
vt 0.827254 0.250000
vt 0.904508 0.500000
vt 0.590818 0.793893
vt 0.737764 0.681636
vt 0.409182 0.793893
vt 0.262236 0.681636
vt 0.206107 0.500000
vt 0.262236 0.318364
vt 0.409182 0.206107
vt 0.590818 0.206107
vt 0.737764 0.318364
vt 0.793893 0.500000
vt 0.547746 0.654508
vt 0.625000 0.595492
vt 0.452254 0.654508
vt 0.375000 0.595491
vt 0.345491 0.500000
vt 0.375000 0.404508
vt 0.452254 0.345491
vt 0.547746 0.345491
vt 0.625000 0.404508
vt 0.654508 0.500000
vt 0.500000 0.500000
vn 0.581228 0.148952 -0.799992
vn 0.581228 0.148952 -0.799992
vn 0.581228 0.148952 -0.799992
vn 0.581228 0.148952 -0.799992
vn -0.000000 0.148952 -0.988844
vn -0.000000 0.148952 -0.988844
vn -0.000000 0.148952 -0.988844
vn -0.000000 0.148952 -0.988844
vn -0.581228 0.148952 -0.799992
vn -0.581228 0.148952 -0.799992
vn -0.581228 0.148952 -0.799992
vn -0.581228 0.148952 -0.799992
vn -0.940447 0.148952 -0.305570
vn -0.940447 0.148952 -0.305570
vn -0.940447 0.148952 -0.305570
vn -0.940447 0.148952 -0.305570
vn -0.940447 0.148952 0.305570
vn -0.940447 0.148952 0.305570
vn -0.940447 0.148952 0.305570
vn -0.940447 0.148952 0.305570
vn -0.581228 0.148952 0.799992
vn -0.581228 0.148952 0.799992
vn -0.581228 0.148952 0.799992
vn -0.581228 0.148952 0.799992
vn 0.000000 0.148952 0.988844
vn 0.000000 0.148952 0.988844
vn 0.000000 0.148952 0.988844
vn 0.000000 0.148952 0.988844
vn 0.581228 0.148952 0.799992
vn 0.581228 0.148952 0.799992
vn 0.581228 0.148952 0.799992
vn 0.581228 0.148952 0.799992
vn 0.940447 0.148952 0.305570
vn 0.940447 0.148952 0.305570
vn 0.940447 0.148952 0.305570
vn 0.940447 0.148952 0.305570
vn 0.940447 0.148952 -0.305570
vn 0.940447 0.148952 -0.305570
vn 0.940447 0.148952 -0.305570
vn 0.940447 0.148952 -0.305570
vn 0.528951 0.436083 -0.728040
vn 0.528951 0.436083 -0.728040
vn 0.528951 0.436083 -0.728040
vn 0.528951 0.436083 -0.728040
vn -0.000000 0.436083 -0.899906
vn -0.000000 0.436083 -0.899906
vn -0.000000 0.436083 -0.899906
vn -0.000000 0.436083 -0.899906
vn -0.528952 0.436083 -0.728039
vn -0.528952 0.436084 -0.728039
vn -0.528952 0.436083 -0.728039
vn -0.528952 0.436084 -0.728039
vn -0.855862 0.436083 -0.278086
vn -0.855862 0.436083 -0.278086
vn -0.855862 0.436083 -0.278086
vn -0.855862 0.436083 -0.278086
vn -0.855862 0.436083 0.278087
vn -0.855862 0.436083 0.278087
vn -0.855862 0.436083 0.278087
vn -0.855862 0.436083 0.278087
vn -0.528952 0.436083 0.728039
vn -0.528952 0.436083 0.728039
vn -0.528952 0.436083 0.728039
vn -0.528952 0.436083 0.728039
vn 0.000000 0.436083 0.899906
vn 0.000000 0.436083 0.899906
vn 0.000000 0.436083 0.899906
vn 0.000000 0.436083 0.899906
vn 0.528952 0.436083 0.728040
vn 0.528952 0.436083 0.728040
vn 0.528952 0.436083 0.728040
vn 0.528952 0.436083 0.728040
vn 0.855862 0.436083 0.278086
vn 0.855862 0.436083 0.278086
vn 0.855862 0.436083 0.278086
vn 0.855862 0.436083 0.278086
vn 0.855862 0.436084 -0.278086
vn 0.855862 0.436084 -0.278086
vn 0.855862 0.436084 -0.278086
vn 0.855862 0.436084 -0.278086
vn 0.425919 0.689152 -0.586227
vn 0.425919 0.689152 -0.586227
vn 0.425919 0.689152 -0.586227
vn 0.425919 0.689152 -0.586227
vn -0.000000 0.689152 -0.724617
vn -0.000000 0.689152 -0.724617
vn -0.000000 0.689152 -0.724617
vn -0.000000 0.689152 -0.724617
vn -0.425919 0.689152 -0.586227
vn -0.425919 0.689152 -0.586227
vn -0.425919 0.689152 -0.586227
vn -0.425919 0.689152 -0.586227
vn -0.689152 0.689152 -0.223919
vn -0.689152 0.689152 -0.223919
vn -0.689152 0.689152 -0.223919
vn -0.689152 0.689152 -0.223919
vn -0.689152 0.689152 0.223919
vn -0.689152 0.689152 0.223919
vn -0.689152 0.689152 0.223919
vn -0.689152 0.689152 0.223919
vn -0.425919 0.689152 0.586228
vn -0.425919 0.689152 0.586228
vn -0.425919 0.689152 0.586228
vn -0.425919 0.689152 0.586228
vn 0.000000 0.689152 0.724617
vn 0.000000 0.689152 0.724617
vn 0.000000 0.689152 0.724617
vn 0.000000 0.689152 0.724617
vn 0.425919 0.689152 0.586227
vn 0.425919 0.689152 0.586227
vn 0.425919 0.689152 0.586227
vn 0.425919 0.689152 0.586227
vn 0.689152 0.689152 0.223919
vn 0.689152 0.689152 0.223919
vn 0.689152 0.689152 0.223919
vn 0.689152 0.689152 0.223919
vn 0.689152 0.689152 -0.223919
vn 0.689152 0.689152 -0.223919
vn 0.689152 0.689152 -0.223919
vn 0.689152 0.689152 -0.223919
vn 0.277578 0.881468 -0.382053
vn 0.277578 0.881468 -0.382053
vn 0.277578 0.881468 -0.382053
vn 0.277578 0.881468 -0.382053
vn -0.000000 0.881468 -0.472243
vn -0.000000 0.881468 -0.472243
vn -0.000000 0.881468 -0.472243
vn -0.000000 0.881468 -0.472243
vn -0.277578 0.881468 -0.382053
vn -0.277578 0.881468 -0.382053
vn -0.277578 0.881468 -0.382053
vn -0.277578 0.881468 -0.382053
vn -0.449130 0.881468 -0.145932
vn -0.449130 0.881468 -0.145932
vn -0.449130 0.881468 -0.145932
vn -0.449130 0.881468 -0.145932
vn -0.449131 0.881468 0.145932
vn -0.449131 0.881468 0.145932
vn -0.449130 0.881468 0.145932
vn -0.449130 0.881468 0.145932
vn -0.277578 0.881468 0.382053
vn -0.277578 0.881468 0.382053
vn -0.277578 0.881468 0.382053
vn -0.277578 0.881468 0.382053
vn 0.000000 0.881468 0.472244
vn 0.000000 0.881468 0.472244
vn 0.000000 0.881468 0.472244
vn 0.000000 0.881468 0.472244
vn 0.277578 0.881468 0.382053
vn 0.277578 0.881468 0.382053
vn 0.277578 0.881468 0.382053
vn 0.277578 0.881468 0.382053
vn 0.449130 0.881468 0.145932
vn 0.449130 0.881468 0.145932
vn 0.449130 0.881468 0.145932
vn 0.449130 0.881468 0.145932
vn 0.449131 0.881468 -0.145932
vn 0.449130 0.881468 -0.145932
vn 0.449131 0.881468 -0.145932
vn 0.449130 0.881468 -0.145932
vn 0.096557 0.986415 -0.132899
vn 0.096557 0.986415 -0.132899
vn 0.096557 0.986415 -0.132899
vn -0.000000 0.986415 -0.164273
vn -0.000000 0.986415 -0.164273
vn -0.000000 0.986415 -0.164273
vn -0.096557 0.986415 -0.132900
vn -0.096557 0.986415 -0.132900
vn -0.096557 0.986415 -0.132900
vn -0.156233 0.986415 -0.050762
vn -0.156233 0.986415 -0.050762
vn -0.156233 0.986415 -0.050762
vn -0.156233 0.986415 0.050762
vn -0.156233 0.986415 0.050762
vn -0.156233 0.986415 0.050762
vn -0.096557 0.986415 0.132899
vn -0.096557 0.986415 0.132899
vn -0.096557 0.986415 0.132899
vn 0.000000 0.986415 0.164273
vn 0.000000 0.986415 0.164273
vn 0.000000 0.986415 0.164273
vn 0.096557 0.986415 0.132900
vn 0.096557 0.986415 0.132900
vn 0.096557 0.986415 0.132900
vn 0.156233 0.986415 0.050762
vn 0.156233 0.986415 0.050762
vn 0.156233 0.986415 0.050762
vn 0.156233 0.986415 -0.050762
vn 0.156233 0.986415 -0.050762
vn 0.156233 0.986415 -0.050762
s off
g pSphere1
f 1/1/1 2/2/2 12/3/3 11/4/4
f 2/2/5 3/5/6 13/6/7 12/3/8
f 3/5/9 4/7/10 14/8/11 13/6/12
f 4/7/13 5/9/14 15/10/15 14/8/16
f 5/9/17 6/11/18 16/12/19 15/10/20
f 6/11/21 7/13/22 17/14/23 16/12/24
f 7/13/25 8/15/26 18/16/27 17/14/28
f 8/15/29 9/17/30 19/18/31 18/16/32
f 9/17/33 10/19/34 20/20/35 19/18/36
f 10/19/37 1/1/38 11/4/39 20/20/40
f 11/4/41 12/3/42 22/21/43 21/22/44
f 12/3/45 13/6/46 23/23/47 22/21/48
f 13/6/49 14/8/50 24/24/51 23/23/52
f 14/8/53 15/10/54 25/25/55 24/24/56
f 15/10/57 16/12/58 26/26/59 25/25/60
f 16/12/61 17/14/62 27/27/63 26/26/64
f 17/14/65 18/16/66 28/28/67 27/27/68
f 18/16/69 19/18/70 29/29/71 28/28/72
f 19/18/73 20/20/74 30/30/75 29/29/76
f 20/20/77 11/4/78 21/22/79 30/30/80
f 21/22/81 22/21/82 32/31/83 31/32/84
f 22/21/85 23/23/86 33/33/87 32/31/88
f 23/23/89 24/24/90 34/34/91 33/33/92
f 24/24/93 25/25/94 35/35/95 34/34/96
f 25/25/97 26/26/98 36/36/99 35/35/100
f 26/26/101 27/27/102 37/37/103 36/36/104
f 27/27/105 28/28/106 38/38/107 37/37/108
f 28/28/109 29/29/110 39/39/111 38/38/112
f 29/29/113 30/30/114 40/40/115 39/39/116
f 30/30/117 21/22/118 31/32/119 40/40/120
f 31/32/121 32/31/122 42/41/123 41/42/124
f 32/31/125 33/33/126 43/43/127 42/41/128
f 33/33/129 34/34/130 44/44/131 43/43/132
f 34/34/133 35/35/134 45/45/135 44/44/136
f 35/35/137 36/36/138 46/46/139 45/45/140
f 36/36/141 37/37/142 47/47/143 46/46/144
f 37/37/145 38/38/146 48/48/147 47/47/148
f 38/38/149 39/39/150 49/49/151 48/48/152
f 39/39/153 40/40/154 50/50/155 49/49/156
f 40/40/157 31/32/158 41/42/159 50/50/160
f 41/42/161 42/41/162 51/51/163
f 42/41/164 43/43/165 51/51/166
f 43/43/167 44/44/168 51/51/169
f 44/44/170 45/45/171 51/51/172
f 45/45/173 46/46/174 51/51/175
f 46/46/176 47/47/177 51/51/178
f 47/47/179 48/48/180 51/51/181
f 48/48/182 49/49/183 51/51/184
f 49/49/185 50/50/186 51/51/187
f 50/50/188 41/42/189 51/51/190
